<svg xmlns="http://www.w3.org/2000/svg" xmlns:xlink="http://www.w3.org/1999/xlink" style="display:none;">
    <!-- Ícone Casa -->
    <symbol id="icon-home" viewBox="0 0 40 40">
        <path d="M33.3,22.3v11.2c0,0.4-0.1,0.8-0.4,1.1c-0.3,0.3-0.6,0.4-1.1,0.4h-9v-9h-6v9h-9c-0.4,0-0.8-0.1-1.1-0.4 c-0.3-0.3-0.4-0.6-0.4-1.1V22.3c0,0,0,0,0-0.1s0-0.1,0-0.1L19.9,11l13.5,11.1C33.3,22.1,33.3,22.2,33.3,22.3L33.3,22.3z M38.5,20.6 l-1.5,1.7c-0.1,0.1-0.3,0.2-0.5,0.3h-0.1c-0.2,0-0.4-0.1-0.5-0.2L19.9,9L3.7,22.5c-0.2,0.1-0.4,0.2-0.6,0.2c-0.2,0-0.4-0.1-0.5-0.3 l-1.5-1.7C1,20.5,1,20.3,1,20.1s0.1-0.4,0.3-0.5l16.8-14C18.6,5.2,19.2,5,19.9,5s1.3,0.2,1.8,0.6l5.7,4.8V5.8c0-0.2,0.1-0.4,0.2-0.5 S27.9,5,28.1,5h4.5c0.2,0,0.4,0.1,0.5,0.2c0.1,0.1,0.2,0.3,0.2,0.5v9.5l5.1,4.3c0.2,0.1,0.2,0.3,0.3,0.5 C38.7,20.3,38.7,20.5,38.5,20.6L38.5,20.6z"/>
    </symbol>

    <!-- Ícone Informação -->
    <symbol id="icon-info" viewBox="0 0 40 40">
        <path d="M28,31.4c-0.3-0.3-0.7-0.5-1.2-0.5h-1.6V16.1c0-0.4-0.2-0.8-0.5-1.2c-0.3-0.3-0.7-0.5-1.2-0.5h-9.8c-0.4,0-0.8,0.2-1.2,0.5 s-0.5,0.7-0.5,1.2v3.3c0,0.4,0.2,0.8,0.5,1.2c0.3,0.3,0.7,0.5,1.2,0.5h1.6v9.8h-1.6c-0.4,0-0.8,0.2-1.2,0.5s-0.5,0.7-0.5,1.2v3.3 c0,0.4,0.2,0.8,0.5,1.2s0.7,0.5,1.2,0.5h13.1c0.4,0,0.8-0.2,1.2-0.5s0.5-0.7,0.5-1.2v-3.3C28.5,32.1,28.3,31.7,28,31.4z M24.7,1.9 c-0.3-0.3-0.7-0.5-1.2-0.5H17c-0.4,0-0.8,0.2-1.2,0.5c-0.3,0.3-0.5,0.7-0.5,1.2V8c0,0.4,0.2,0.8,0.5,1.2c0.3,0.3,0.7,0.5,1.2,0.5 h6.5c0.4,0,0.8-0.2,1.2-0.5c0.3-0.3,0.5-0.7,0.5-1.2V3.1C25.2,2.6,25.1,2.2,24.7,1.9z"/>
    </symbol>

    <!-- Ícone Discord -->
    <symbol id="icon-discord" viewBox="0 0 40 40">
        <path d="M33.2,8.3c-2.5-1.1-5.1-1.9-7.9-2.4c-0.3,0.6-0.7,1.4-1,2c-2.9-0.4-5.8-0.4-8.7,0c-0.3-0.6-0.7-1.4-1-2 c-2.8,0.5-5.4,1.3-7.9,2.4c-5,7.2-6.3,14.2-5.6,21.1c3.3,2.3,6.5,3.8,9.6,4.7c0.8-1,1.5-2.1,2.1-3.3c-1.1-0.4-2.2-0.9-3.2-1.5 c0.3-0.2,0.5-0.4,0.8-0.6c6.3,2.8,13,2.8,19.2,0c0.3,0.2,0.5,0.4,0.8,0.6c-1,0.6-2.1,1.1-3.2,1.5c0.6,1.1,1.3,2.2,2.1,3.3 c3.1-0.9,6.3-2.4,9.6-4.7C39.7,21.4,37.5,14.4,33.2,8.3z M13.7,25.1c-1.9,0-3.4-1.7-3.4-3.7s1.5-3.7,3.4-3.7c1.9,0,3.5,1.7,3.4,3.7 C17.1,23.4,15.6,25.1,13.7,25.1z M26.3,25.1c-1.9,0-3.4-1.7-3.4-3.7s1.5-3.7,3.4-3.7c1.9,0,3.5,1.7,3.4,3.7 C29.7,23.4,28.2,25.1,26.3,25.1z"/>
    </symbol>

    <!-- Ícone Instagram -->
    <symbol id="icon-instagram" viewBox="0 0 40 40">
        <path d="M20,7c4.2,0,4.7,0,6.3,0.1c1.5,0.1,2.3,0.3,3,0.5C30,8,30.5,8.3,31.1,8.9c0.5,0.5,0.9,1.1,1.2,1.8c0.2,0.5,0.5,1.4,0.5,3 C33,15.3,33,15.8,33,20s0,4.7-0.1,6.3c-0.1,1.5-0.3,2.3-0.5,3c-0.3,0.7-0.6,1.2-1.2,1.8c-0.5,0.5-1.1,0.9-1.8,1.2 c-0.5,0.2-1.4,0.5-3,0.5C24.7,33,24.2,33,20,33s-4.7,0-6.3-0.1c-1.5-0.1-2.3-0.3-3-0.5C10,32,9.5,31.7,8.9,31.1 C8.4,30.6,8,30,7.7,29.3c-0.2-0.5-0.5-1.4-0.5-3C7,24.7,7,24.2,7,20s0-4.7,0.1-6.3c0.1-1.5,0.3-2.3,0.5-3C8,10,8.3,9.5,8.9,8.9 C9.4,8.4,10,8,10.7,7.7c0.5-0.2,1.4-0.5,3-0.5C15.3,7.1,15.8,7,20,7z M20,4.3c-4.3,0-4.8,0-6.5,0.1c-1.6,0-2.8,0.3-3.8,0.7 C8.7,5.5,7.8,6,6.9,6.9C6,7.8,5.5,8.7,5.1,9.7c-0.4,1-0.6,2.1-0.7,3.8c-0.1,1.7-0.1,2.2-0.1,6.5s0,4.8,0.1,6.5 c0,1.6,0.3,2.8,0.7,3.8c0.4,1,0.9,1.9,1.8,2.8c0.9,0.9,1.7,1.4,2.8,1.8c1,0.4,2.1,0.6,3.8,0.7c1.6,0.1,2.2,0.1,6.5,0.1 s4.8,0,6.5-0.1c1.6-0.1,2.9-0.3,3.8-0.7c1-0.4,1.9-0.9,2.8-1.8c0.9-0.9,1.4-1.7,1.8-2.8c0.4-1,0.6-2.1,0.7-3.8 c0.1-1.6,0.1-2.2,0.1-6.5s0-4.8-0.1-6.5c-0.1-1.6-0.3-2.9-0.7-3.8c-0.4-1-0.9-1.9-1.8-2.8c-0.9-0.9-1.7-1.4-2.8-1.8 c-1-0.4-2.1-0.6-3.8-0.7C24.8,4.3,24.3,4.3,20,4.3L20,4.3L20,4.3z"/><path d="M20,11.9c-4.5,0-8.1,3.7-8.1,8.1s3.7,8.1,8.1,8.1s8.1-3.7,8.1-8.1S24.5,11.9,20,11.9z M20,25.2c-2.9,0-5.2-2.3-5.2-5.2 s2.3-5.2,5.2-5.2s5.2,2.3,5.2,5.2S22.9,25.2,20,25.2z"/><path d="M30.6,11.6c0,1-0.8,1.9-1.9,1.9c-1,0-1.9-0.8-1.9-1.9s0.8-1.9,1.9-1.9C29.8,9.7,30.6,10.5,30.6,11.6z"/>
    </symbol>

    <!-- Ícone TikTok -->
    <symbol id="icon-tiktok" viewBox="0 0 40 40">
        <path d="M36.1,11.7v5c-3.3,0-6.3-1-8.8-2.8v12.9c0,6.5-5.2,11.7-11.7,11.7c-2.4,0-4.6-0.7-6.5-2c0,0,0,0,0,0 c-3.1-2.1-5.2-5.7-5.2-9.7c0-6.5,5.2-11.7,11.7-11.7c0.5,0,1.1,0,1.6,0.1v1.4c0,0,0,0,0,0v5c-0.5-0.2-1.1-0.3-1.6-0.3 c-2.9,0-5.3,2.4-5.3,5.4c0,2.1,1.2,3.9,2.9,4.8c0.7,0.4,1.5,0.6,2.4,0.6c2.9,0,5.3-2.4,5.3-5.3V1.5h6.3v0.8c0,0.2,0.1,0.5,0.1,0.7 c0.4,2.5,1.9,4.7,4,6c0,0,0.1,0.1,0.1,0.1c0,0-0.1-0.1-0.1-0.1c1.4,0.9,3,1.3,4.7,1.3V11.7"/>
    </symbol>

    <!-- Ícone Spirit -->
    <symbol id="icon-spirit" viewBox="0 0 40 40">
        <path d="M26.2,36.9c-1.7,0.6-3.6,0.8-5.4,1.2c-0.5,0-1.1,0-1.6,0C19,38,18.7,38,18.4,37.9C11,37,5.8,33,3.1,26 c-0.6-1.5-0.8-3.2-1.1-4.8c0-0.8,0-1.6,0-2.4c0.1-0.3,0.1-0.5,0.2-0.8C3.2,10.9,7,5.9,13.6,3.2c1.8-0.7,3.7-0.9,5.6-1.3 c0.5,0,1.1,0,1.6,0c0.7,0.1,1.5,0.2,2.2,0.4c7.8,1.3,14.1,7.9,14.8,15.6C38.7,26.4,34,34.1,26.2,36.9z M20,4c-8.9,0-16,7.1-16,16 c0,8.8,7.1,16,16,16C28.9,36,36,28.9,36,20C36,11.1,28.9,4,20,4z M26.9,31.1c-3,2.7-6.4,3.5-10.2,2c-3.8-1.4-5.8-4.3-6.2-8.3 c-0.2-2.1-0.2-4.2,0.3-6.2c0.9,0.9,1.7,1.8,2.5,2.7c0.1,0,0.1-0.1,0.2-0.1c0.1-5.7,2-10.6,6.1-14.6c0.3,1.6,0.5,3.2,0.9,4.8 c0.2,0.8,0.7,1.5,1.1,2.2c0.7,1.5,1.4,3,2.1,4.5c1.2-0.9,1.8-2.3,2.2-4.1c1.2,1.7,2,3.4,2.2,5.3c0.1,1.9,0,3.8-0.1,5.7 c0.5-0.2,1.1-0.5,1.8-0.8C30.1,26.3,28.8,29.3,26.9,31.1z"/>
    </symbol>

    <!-- Ícone Amazon -->
    <symbol id="icon-amazon" viewBox="0 0 40 40">
        <path d="M29.4,16.6c0,1.3,0,2.7,0,4c-0.1,1.5,0.4,2.8,1.4,4c0.1,0.1,0.2,0.3,0.3,0.4c0.3,0.5,0.3,0.9-0.2,1.3c-1,0.8-2,1.7-3,2.6 c-0.6,0.5-1,0.5-1.6,0c-0.8-0.7-1.5-1.5-2-2.4c-0.1-0.2-0.2-0.2-0.4,0c-1,1-2.1,1.9-3.4,2.4c-2.1,0.7-4.2,0.8-6.3,0.1 c-2-0.7-3.2-2.2-3.7-4.3c-0.5-2.3-0.2-4.5,1.2-6.5c1.1-1.5,2.6-2.4,4.3-2.9c1.8-0.5,3.6-0.8,5.5-0.9c0.5-0.1,1-0.1,1.6-0.2 c0.1,0,0.2,0,0.2-0.2c0-0.8,0.1-1.7-0.1-2.5c-0.3-1.1-1-1.7-2-1.9c-0.8-0.2-1.5-0.1-2.3,0.1c-1.1,0.4-1.8,1.2-2.1,2.3 c-0.2,0.6-0.4,0.9-1.1,0.8c-1.3-0.1-2.6-0.3-3.9-0.4c-0.5-0.1-0.8-0.5-0.7-1c0.7-3.3,2.9-5.2,6-6.1c2.4-0.7,4.9-0.7,7.3,0 c1.9,0.5,3.6,1.5,4.5,3.4c0.5,1.1,0.6,2.3,0.7,3.4C29.4,13.6,29.4,15.1,29.4,16.6C29.4,16.6,29.4,16.6,29.4,16.6z M23.1,19.1 c0-0.4,0-0.8,0-1.2c0-0.2-0.1-0.3-0.3-0.3c-0.6,0.1-1.2,0.1-1.8,0.1c-1.1,0.1-2.1,0.4-3,1.1c-1.3,1-1.5,2.3-1.3,3.8 c0.2,1.8,1.8,2.8,3.5,2.2c1.2-0.4,1.9-1.3,2.3-2.3C23.1,21.5,23.1,20.3,23.1,19.1z M20.2,37.2c-6.1,0-11.6-1.6-16.6-4.9 c-1-0.7-2-1.4-2.9-2.2c-0.1-0.1-0.2-0.1-0.2-0.2c-0.1-0.1-0.2-0.3,0-0.4c0.1-0.2,0.3-0.2,0.4-0.1c0.4,0.2,0.7,0.4,1,0.5 c3.2,1.7,6.5,2.9,10,3.6c3.2,0.7,6.3,1,9.6,0.9c4.6-0.1,9.1-1.1,13.4-2.8c0.2-0.1,0.4-0.2,0.6-0.2c0.3-0.1,0.6,0,0.7,0.3 c0.1,0.3,0,0.5-0.3,0.7c-0.2,0.1-0.3,0.2-0.5,0.4c-2.8,1.8-5.8,2.9-9,3.7C24.3,37,22.2,37.2,20.2,37.2z M35.6,30.1 c-0.9,0-1.8,0.1-2.7,0.2c-0.2,0-0.4,0.1-0.5-0.1c-0.1-0.2,0.1-0.3,0.2-0.4c1.1-0.8,2.4-1.1,3.8-1.1c0.9-0.1,1.8,0,2.7,0.3 c0.4,0.1,0.6,0.4,0.6,0.8c0,2.2-0.8,4.2-2.4,5.7c-0.1,0.1-0.1,0.1-0.2,0.2c-0.1,0.1-0.3,0.2-0.5,0.1c-0.1-0.1-0.1-0.3,0-0.4 c0.5-1.2,1-2.3,1.2-3.6c0-0.2,0-0.3,0-0.5c0-0.5-0.2-0.7-0.7-0.9C36.7,30.1,36.1,30.1,35.6,30.1z"/>
    </symbol>

    <!-- Ícone Wattpad -->
    <symbol id="icon-wattpad" viewBox="0 0 40 40">
        <path d="M9.8,34.8c-0.1,0-0.2,0-0.3,0c-0.1,0-0.1,0-0.2,0c-1.2-0.1-2.2-0.5-3-1.3c-1-0.9-1.7-2.1-2.2-3.3c-0.9-2.3-1.3-4.7-1.4-7.1 c0-0.5-0.1-1-0.1-1.5c0-1.1,0-2.3,0-3.4c0-0.1,0-0.2,0-0.3c0.1-0.8,0.1-1.5,0.2-2.3c0.1-1.1,0.3-2.3,0.7-3.4c0.4-1.1,0.9-2.2,1.9-3 C6.8,8,9.1,7.9,10.5,9c0.8,0.6,1.3,1.5,1.5,2.6c0.3,1.7,0.2,3.4,0.1,5.1c0,0.4-0.1,0.7-0.1,1.1c0.1-0.1,0.1-0.1,0.2-0.2 c0.9-1.3,1.7-2.7,2.6-3.9C16,12,17.3,10.3,18.9,9c0.8-0.7,1.7-1.3,2.8-1.6c0.3-0.1,0.6-0.1,0.9-0.2c0.2,0,0.4,0,0.6,0 c0.3,0.1,0.6,0.1,0.9,0.2c1.3,0.4,2.1,1.3,2.6,2.6c0.5,1.2,0.6,2.5,0.5,3.8c0,0.8-0.1,1.5-0.2,2.3c0,0,0,0,0,0c1-1.3,2-2.5,3.1-3.7 c1.2-1.3,2.5-2.4,4-3.3c0.9-0.6,1.9-1,3.1-0.9c1,0.1,1.8,0.7,2.1,1.7c0,0.1,0.1,0.2,0.1,0.3c0,0.2,0,0.4,0,0.7 c-0.1,0.3-0.1,0.7-0.3,1c-0.4,0.7-0.8,1.4-1.3,2.1c-1.3,1.9-2.5,3.8-3.7,5.8c-1.5,2.6-2.8,5.3-4.1,7.9c-0.5,1.1-1.2,2-2.2,2.8 c-1.8,1.3-4,1.3-5.7,0c-1.2-0.9-1.8-2.2-2.2-3.6c-0.4-1.5-0.4-3-0.3-4.5c0-0.1,0-0.3,0-0.4c-0.2,0.2-0.3,0.4-0.4,0.6 c-1.1,1.9-2,4-3,6C15.7,30,15,31.4,14,32.7c-0.9,1-1.9,1.8-3.3,2C10.4,34.7,10.1,34.7,9.8,34.8z"/>
    </symbol>
</svg>